# xmcd
#
# Track frame offsets: 
#        150
#        17167
#        33886
#        50686
#        67613
#        84749
#        101629
#        145379
#        162392
#        184049
#        198390
#
# Disc length: 2987 seconds
#
# Revision: 0
# Processed by: cddbd v1.5.2PL0 Copyright (c) Steve Scherf et al.
# Submitted via: ExactAudioCopyFreeDBPlugin 1.0
#
DISCID=910ba90b
DTITLE=Pascal Geiser - Luck Man
DYEAR=2018
DGENRE=Blues
TTITLE0=Lucky Man Can Play the Blues
TTITLE1=Memphis Here I Come
TTITLE2=My Pillow
TTITLE3=Blues on My Tail
TTITLE4=Now You're Gone
TTITLE5=First Time I Felt the Blues
TTITLE6=Song for Oliver
TTITLE7=Take it or Leave it
TTITLE8=Sad Stranger
TTITLE9=Saturday
TTITLE10=Feels Like Rain
EXTD=
EXTT0=
EXTT1=
EXTT2=
EXTT3=
EXTT4=
EXTT5=
EXTT6=
EXTT7=
EXTT8=
EXTT9=
EXTT10=
PLAYORDER=
